<?xml version="1.0" encoding="UTF-8" standalone="no"?>
<svg width="624px" height="512px" viewBox="0 0 624 512" version="1.1" xmlns="http://www.w3.org/2000/svg" xmlns:xlink="http://www.w3.org/1999/xlink">
    <!-- Generator: Sketch 41.2 (35397) - http://www.bohemiancoding.com/sketch -->
    <title>Group 8</title>
    <desc>Created with Sketch.</desc>
    <defs>
        <polygon id="path-1" points="107.937926 0.981257987 0.284994175 0.981257987 0.284994175 33.9874902 107.937926 33.9874902 107.937926 0.981257987"></polygon>
        <linearGradient x1="50%" y1="26.5515503%" x2="50%" y2="98.4673948%" id="linearGradient-3">
            <stop stop-color="#1291DD" offset="0%"></stop>
            <stop stop-color="#02559B" offset="100%"></stop>
        </linearGradient>
        <linearGradient x1="50%" y1="50%" x2="50%" y2="100%" id="linearGradient-4">
            <stop stop-color="#1291DD" offset="0%"></stop>
            <stop stop-color="#045CA3" offset="100%"></stop>
        </linearGradient>
        <linearGradient x1="85.45064%" y1="37.0451815%" x2="62.0409869%" y2="85.5729549%" id="linearGradient-5">
            <stop stop-color="#0B78C1" offset="0%"></stop>
            <stop stop-color="#065997" offset="100%"></stop>
        </linearGradient>
        <linearGradient x1="75.6296737%" y1="24.306197%" x2="34.8812716%" y2="80.7627481%" id="linearGradient-6">
            <stop stop-color="#1291DD" offset="0%"></stop>
            <stop stop-color="#0F619B" offset="81.122449%"></stop>
            <stop stop-color="#065997" offset="100%"></stop>
        </linearGradient>
        <linearGradient x1="54.6452271%" y1="45.4585371%" x2="39.8960561%" y2="74.9614999%" id="linearGradient-7">
            <stop stop-color="#035B9C" offset="0%"></stop>
            <stop stop-color="#0D7CC6" offset="100%"></stop>
        </linearGradient>
        <linearGradient x1="46.0800821%" y1="47.1444206%" x2="57.3214061%" y2="71.5897327%" id="linearGradient-8">
            <stop stop-color="#045B9C" offset="0%"></stop>
            <stop stop-color="#0D7CC6" offset="100%"></stop>
        </linearGradient>
        <polygon id="path-9" points="83.8190632 0.506897726 0.416744759 0.506897726 0.416744759 108.894669 83.8190632 108.894669"></polygon>
        <linearGradient x1="75.6296737%" y1="24.306197%" x2="34.8812716%" y2="80.7627481%" id="linearGradient-11">
            <stop stop-color="#117DC1" offset="0%"></stop>
            <stop stop-color="#0F66A2" offset="81.122449%"></stop>
            <stop stop-color="#065997" offset="100%"></stop>
        </linearGradient>
    </defs>
    <g id="Page-1" stroke="none" stroke-width="1" fill="none" fill-rule="evenodd">
        <g id="Artboard-2-Copy" transform="translate(-228.000000, -207.000000)">
            <g id="Group-4" transform="translate(228.000000, 206.000000)">
                <g id="Group-2">
                    <g id="Group">
                        <g id="Group-8">
                            <g id="Page-1" transform="translate(150.000000, 0.000000)">
                                <g id="Group-3" transform="translate(106.951456, 0.839325)">
                                    <mask id="mask-2" fill="white">
                                        <use xlink:href="#path-1"></use>
                                    </mask>
                                    <g id="Clip-2"></g>
                                    <path d="M9.49540194,17.4839025 C12.6787806,20.4608354 28.8064311,25.1101318 54.1098874,25.1101318 C79.4133437,25.1101318 95.5441398,20.4608354 98.7275184,17.4839025 C95.5441398,14.5069697 79.4133437,9.85767329 54.1098874,9.85767329 C28.8064311,9.85767329 12.6787806,14.5069697 9.49540194,17.4839025 M54.1098874,33.9874902 C48.6018874,33.9874902 0.284994175,33.5222462 0.284994175,17.4839025 C0.284994175,1.44555892 48.6018874,0.980314925 54.1098874,0.980314925 C59.621033,0.980314925 107.937926,1.44555892 107.937926,17.4839025 C107.937926,33.5222462 59.621033,33.9874902 54.1098874,33.9874902" id="Fill-1" fill="#CEC09D" mask="url(#mask-2)"></path>
                                </g>
                                <path d="M69.4460971,268.234698 L128.621709,194.952481 L160.669398,227.761614 L190.552893,194.493525 L251.367379,270.460324 C251.367379,270.460324 264.736311,235.620465 239.964466,195.27941 L160.669398,47.4009775 L84.035534,188.536515 C84.035534,188.536515 56.2753398,229.333384 69.4460971,268.234698" id="Fill-4" fill="url(#linearGradient-3)"></path>
                                <path d="M175.217942,239.746362 L184.459806,235.816936 L187.605437,244.854615 L192.912117,236.209879 L204.906408,239.746362 L189.961515,221.278061 L178.363573,235.423994 L175.217942,239.746362 Z M112.173204,246.753314 L123.447146,240.727146 L127.640272,251.993596 L132.097631,239.941261 L147.039379,242.823888 L128.687767,224.487616 L116.630563,240.727146 L112.173204,246.753314 Z M74.9509515,283.953972 L128.42668,213.221167 L160.669398,245.442457 L190.552893,211.256454 L246.387845,283.953972 C246.387845,283.953972 228.888699,339.553773 160.669398,338.176902 C160.669398,338.176902 102.475223,342.895356 74.9509515,283.953972 L74.9509515,283.953972 Z" id="Fill-6" fill="url(#linearGradient-4)"></path>
                                <path d="M215.051697,243.132584 L246.322416,283.885443 C246.322416,283.885443 233.019542,327.668675 182.164124,336.60576 C182.164124,336.60576 138.584551,349.051037 100.031697,317.411302 C100.031697,317.411302 207.448707,341.368224 215.051697,243.132584" id="Fill-8" fill="url(#linearGradient-5)"></path>
                                <path d="M128.623282,194.95091 C128.623282,194.95091 100.900835,179.43125 160.670971,47.3994057 L84.0339612,188.538087 C84.0339612,188.538087 56.0787379,223.701731 69.4476699,268.233126 L128.623282,194.95091 Z" id="Fill-10" fill="url(#linearGradient-6)"></path>
                                <path d="M105.338691,125.732977 C102.633449,98.2647202 59.8245553,92.8578305 59.8245553,92.8578305 C24.2254485,82.5030081 0.00094368932,57.929952 0.00094368932,57.929952 C1.00754563,115.318427 29.2238563,114.523112 29.2238563,114.523112 C26.5595068,141.592139 50.9790408,143.764325 50.9790408,143.764325 C57.4558951,170.798774 82.1868466,165.398171 82.1868466,165.398171 L105.338691,125.732977 Z" id="Fill-12" fill="#0D7FCA"></path>
                                <path d="M105.338691,125.732977 C102.633449,98.2647202 59.8245553,92.8578305 59.8245553,92.8578305 C24.2254485,82.5030081 0.00094368932,57.929952 0.00094368932,57.929952 C1.00754563,115.318427 29.2238563,114.523112 29.2238563,114.523112 C26.5595068,141.592139 50.9790408,143.764325 50.9790408,143.764325 C57.4558951,170.798774 82.1868466,165.398171 82.1868466,165.398171 L105.338691,125.732977 Z" id="Fill-12" fill="#0D7FCA"></path>
                                <path d="M55.6839612,103.591764 C8.0496699,103.871539 0,57.9286946 0,57.9286946 C2.11700971,116.79149 29.2229126,114.524998 29.2229126,114.524998 C27.9269126,142.351618 50.9812427,143.763068 50.9812427,143.763068 C58.0714951,171.753153 82.1890485,165.396914 82.1890485,165.396914 L105.325165,125.89204 C105.325165,125.89204 106.111573,103.296271 55.6839612,103.591764" id="Fill-14" fill="url(#linearGradient-7)"></path>
                                <path d="M0,57.929952 C0,57.929952 2.60143689,106.538519 31.8935534,112.8256 C31.8935534,112.8256 30.1257087,138.171967 53.9129709,141.315507 C53.9129709,141.315507 57.0586019,165.479903 83.4032621,163.122248 L82.1890485,165.398171 C82.1890485,165.398171 58.6628738,173.128137 50.9812427,143.764325 C50.9812427,143.764325 27.2726214,143.399675 29.2229126,114.523112 C29.2229126,114.523112 1.46271845,116.921633 0,57.929952" id="Fill-16" fill="#1291DD"></path>
                                <path d="M217.048544,125.732977 C219.753786,98.2647202 262.56268,92.8578305 262.56268,92.8578305 C298.161786,82.5030081 322.386291,57.929952 322.386291,57.929952 C321.379689,115.318427 293.163379,114.523112 293.163379,114.523112 C295.827728,141.592139 271.408194,143.764325 271.408194,143.764325 C264.93134,170.798774 240.200388,165.398171 240.200388,165.398171 L217.048544,125.732977 Z" id="Fill-18" fill="#0D7FCA"></path>
                                <g id="Group-22" transform="translate(217.048544, 57.423054)" fill="url(#linearGradient-8)">
                                    <path d="M49.6547301,46.1687096 C97.2890214,46.4484847 105.338691,0.50564031 105.338691,0.50564031 C103.221682,59.3684362 76.1157786,57.1019435 76.1157786,57.1019435 C77.4117786,84.928564 54.3574485,86.3400136 54.3574485,86.3400136 C47.2671961,114.330098 23.1496427,107.973859 23.1496427,107.973859 L0.0135262136,68.4689859 C0.0135262136,68.4689859 -0.772881553,45.8732168 49.6547301,46.1687096" id="Fill-20"></path>
                                </g>
                                <g id="Group-25" transform="translate(238.567228, 57.423054)">
                                    <mask id="mask-10" fill="white">
                                        <use xlink:href="#path-9"></use>
                                    </mask>
                                    <g id="Clip-24"></g>
                                    <path d="M83.8200069,0.506897726 C83.8200069,0.506897726 81.21857,49.1154645 51.9264535,55.4025455 C51.9264535,55.4025455 53.6942982,80.7489125 29.907036,83.892453 C29.907036,83.892453 26.761405,108.056849 0.416744759,105.699193 L1.63095835,107.975117 C1.63095835,107.975117 25.1571331,115.705083 32.8387642,86.3412711 C32.8387642,86.3412711 56.5473855,85.9766204 54.5970943,57.1000573 C54.5970943,57.1000573 82.3572884,59.4985787 83.8200069,0.506897726" id="Fill-23" fill="#1291DD" mask="url(#mask-10)"></path>
                                </g>
                                <path d="M190.552893,194.492581 C190.552893,194.492581 222.402408,177.464023 160.669398,47.4000344 L238.655883,192.659897 C238.655883,192.659897 264.214136,225.142101 251.367379,270.462525 L190.552893,194.492581 Z" id="Fill-26" fill="url(#linearGradient-11)"></path>
                            </g>
                            <path d="M29.1074215,434.949332 L29.1074215,432.835253 C32.02825,432.835253 33.4886424,431.72789 33.4886424,429.51313 L33.0857715,408.473018 L23.1147171,434.949332 L18.5824196,434.949332 L7.80562341,408.624023 L7.60418796,428.808438 C7.60418796,431.492995 9.24922763,432.835253 12.5393563,432.835253 L12.5393563,434.949332 L1.13686838e-13,434.949332 L1.13686838e-13,432.835253 C1.51077337,432.835253 2.66901559,432.474521 3.47476139,431.753047 C4.28050719,431.031572 4.70016016,429.915819 4.7337329,428.405756 L5.13660379,406.409274 C5.13660379,406.006591 5.11142461,405.645859 5.0610655,405.327068 C5.01070639,405.008277 4.82605908,404.739825 4.50711803,404.521705 C4.18817699,404.303584 3.69298647,404.127413 3.02153164,403.993185 C2.35007681,403.858957 1.41005414,403.791844 0.201435443,403.791844 L0.201435443,401.577095 L13.6976101,401.577095 L23.4168702,425.939331 L32.7836183,401.577095 L44.6683094,401.577095 L44.6683094,403.791844 C43.6611272,403.791844 42.8553935,403.867346 42.2510841,404.018353 C41.6467748,404.169359 41.1683704,404.370698 40.8158566,404.622375 C40.4633428,404.874052 40.2367302,405.150893 40.136012,405.452906 C40.0352937,405.754918 39.9849354,406.073705 39.9849354,406.409274 L40.5892417,429.160784 C40.6563872,431.610442 42.1503518,432.835253 45.0711803,432.835253 L45.0711803,434.949332 L29.1074215,434.949332 Z M97.5954732,433.1876 C99.3748285,433.1876 100.835221,432.81009 101.976694,432.055058 C103.118167,431.300026 104.016225,430.259776 104.670893,428.934276 C105.325562,427.608775 105.778787,426.0484 106.030582,424.253102 C106.282378,422.457804 106.408274,420.536697 106.408274,418.489722 C106.408274,416.576975 106.282378,414.714591 106.030582,412.902515 C105.778787,411.090439 105.308775,409.479729 104.620534,408.070336 C103.932293,406.660943 102.967091,405.528413 101.7249,404.67271 C100.482708,403.817008 98.8544548,403.389163 96.8400903,403.389163 C94.9935895,403.389163 93.516411,403.79184 92.4085106,404.597207 C91.3006101,405.402575 90.4529111,406.48477 89.8653881,407.843828 C89.2778651,409.202885 88.8917844,410.76326 88.7071343,412.525001 C88.5224842,414.286742 88.4301606,416.140736 88.4301606,418.08704 C88.4301606,420.201129 88.5644495,422.180961 88.8330314,424.026594 C89.1016134,425.872227 89.5800178,427.474548 90.268259,428.833605 C90.9565002,430.192662 91.8881298,431.25808 93.0631757,432.02989 C94.2382217,432.8017 95.7489724,433.1876 97.5954732,433.1876 Z M115.019639,418.08704 C115.019639,420.939383 114.566414,423.456117 113.65995,425.63732 C112.753486,427.818523 111.50292,429.655739 109.908215,431.149024 C108.313509,432.642309 106.433464,433.77484 104.268022,434.54665 C102.10258,435.31846 99.7441307,435.70436 97.1926023,435.70436 C94.7753649,435.70436 92.5092389,435.377184 90.3941561,434.722823 C88.2790734,434.068462 86.4326003,433.04499 84.8546815,431.652376 C83.2767626,430.259762 82.0345898,428.47288 81.1281258,426.291678 C80.2216617,424.110475 79.7684365,421.509849 79.7684365,418.489722 C79.7684365,415.436038 80.2048756,412.810245 81.0777669,410.612264 C81.9506582,408.414282 83.1676518,406.602233 84.7287843,405.176062 C86.2899168,403.749891 88.1363899,402.701252 90.268259,402.030112 C92.4001281,401.358973 94.7082194,401.023408 97.1926023,401.023408 C99.6434125,401.023408 101.951504,401.38414 104.116946,402.105615 C106.282388,402.82709 108.170826,403.900897 109.782317,405.327068 C111.393809,406.753239 112.669554,408.531731 113.609591,410.662599 C114.549628,412.793466 115.019639,415.268255 115.019639,418.08704 Z M177.917857,435.553354 L156.515341,413.053521 L156.515341,427.298382 C156.515341,430.989648 158.227526,432.835253 161.651945,432.835253 L161.651945,434.949332 L149.112589,434.949332 L149.112589,432.835253 C151.932699,432.835253 153.342733,430.989648 153.342733,427.298382 L153.342733,405.452906 C153.342733,404.345526 151.697694,403.791844 148.407565,403.791844 L148.407565,401.577095 L157.92539,401.577095 L176.809962,421.811845 L176.809962,408.875699 C176.809962,405.486446 175.114564,403.791844 171.723717,403.791844 L171.723717,401.577095 L184.212715,401.577095 L184.212715,403.791844 C181.157595,403.791844 179.630058,405.486446 179.630058,408.875699 L179.630058,435.100337 L177.917857,435.553354 Z M221.629349,434.949332 L221.629349,432.835253 C225.120915,432.835253 226.866671,431.425882 226.866671,428.607097 L226.866671,405.855587 C226.866671,404.848878 226.17844,404.345531 224.801958,404.345531 C223.761203,404.345531 222.863145,404.521703 222.107759,404.874051 C221.352372,405.226399 220.697713,405.754913 220.143763,406.45961 C219.589813,407.164306 219.119802,408.045163 218.733715,409.102208 C218.347628,410.159252 218.003513,411.392452 217.701358,412.801845 L214.579109,412.348828 L215.989157,401.174414 C216.862048,401.308642 217.818857,401.409311 218.859612,401.476425 C219.900367,401.543539 220.722887,401.577095 221.327196,401.577095 L241.218946,401.577095 C241.957547,401.577095 242.863997,401.543539 243.938325,401.476425 C245.012652,401.409311 245.986247,401.308642 246.859139,401.174414 L246.859139,412.197822 L243.938325,412.449498 C243.770461,409.798498 243.208126,407.818667 242.251303,406.509945 C241.29448,405.201223 239.641047,404.546872 237.290955,404.546872 C235.847327,404.546872 235.125524,404.983106 235.125524,405.855587 L235.125524,428.607097 C235.125524,431.425882 236.904853,432.835253 240.463563,432.835253 L240.463563,434.949332 L221.629349,434.949332 Z M324.865016,434.949332 L324.865016,432.835253 C327.85299,432.835253 329.346955,431.744668 329.346955,429.563465 L329.346955,406.409274 C329.346955,404.664312 327.785846,403.791844 324.663581,403.791844 L324.663581,401.577095 L336.044683,401.577095 C337.320448,401.577095 338.386366,401.551928 339.242471,401.501593 C340.098576,401.451257 341.080564,401.42609 342.188464,401.42609 C346.620066,401.42609 349.859787,402.239834 351.907724,403.867347 C353.955662,405.49486 354.979615,407.986427 354.979615,411.342124 C354.979615,412.617289 354.753002,413.825321 354.29977,414.966258 C353.846538,416.107195 353.099556,417.097111 352.058801,417.936035 C351.018046,418.774959 349.675157,419.437699 348.030092,419.924275 C346.385028,420.410851 344.370694,420.654135 341.987029,420.654135 C340.979847,420.654135 340.148934,420.620579 339.494265,420.553465 C338.839597,420.486351 338.210117,420.385682 337.605808,420.251454 L337.605808,429.362125 C337.605808,430.469505 338.025461,431.325194 338.86478,431.92922 C339.704098,432.533245 340.929485,432.835253 342.540976,432.835253 L342.540976,434.949332 L324.865016,434.949332 Z M337.605808,417.684359 C338.277263,417.852144 338.948708,417.969591 339.620162,418.036705 C340.291617,418.103819 341.080565,418.137376 341.987029,418.137376 C343.027784,418.137376 343.841911,417.944426 344.429434,417.558521 C345.016957,417.172616 345.453396,416.66088 345.738764,416.023297 C346.024132,415.385715 346.200387,414.639084 346.267532,413.783381 C346.334678,412.927678 346.36825,412.046821 346.36825,411.140783 C346.36825,409.899175 346.267533,408.816979 346.066097,407.894163 C345.86466,406.971346 345.503759,406.207937 344.983381,405.603911 C344.463004,404.999886 343.749594,404.546874 342.84313,404.244861 C341.936666,403.942848 340.795209,403.791844 339.418727,403.791844 C338.210108,403.791844 337.605808,404.546865 337.605808,406.056928 L337.605808,417.684359 Z M389.827948,434.949332 L389.827948,432.835253 C392.849495,432.835253 394.360245,431.862116 394.360245,429.915812 L394.360245,407.566984 C394.360245,405.050212 392.731992,403.791844 389.475436,403.791844 L389.475436,401.577095 L418.381422,401.577095 L418.784293,411.442794 L415.712402,411.69447 C415.410247,409.848837 414.973808,408.431077 414.403072,407.441146 C413.832335,406.451216 413.144104,405.729752 412.338358,405.276733 C411.532613,404.823713 410.609376,404.555262 409.568621,404.471369 C408.527866,404.387477 407.369624,404.345531 406.09386,404.345531 C404.985959,404.345531 404.129867,404.504925 403.525558,404.823716 C402.921249,405.142507 402.619098,405.603908 402.619098,406.207934 L402.619098,415.066929 C402.619098,415.872296 403.005179,416.274973 403.777352,416.274973 C404.583098,416.274973 405.321687,416.224639 405.993142,416.123968 C406.664597,416.023297 407.260504,415.796791 407.780882,415.444442 C408.301259,415.092094 408.729305,414.56358 409.065033,413.858884 C409.40076,413.154187 409.61898,412.197828 409.719698,410.989777 L412.640512,410.989777 L412.640512,424.37894 L409.719698,424.37894 C409.61898,423.238003 409.451118,422.315201 409.216109,421.610504 C408.9811,420.905808 408.653771,420.368905 408.234111,419.999778 C407.814452,419.630651 407.285689,419.378978 406.647807,419.24475 C406.009925,419.110522 405.237764,419.026631 404.3313,418.993074 C403.189826,419.093745 402.619098,419.546757 402.619098,420.352124 L402.619098,429.764806 C402.619098,431.375541 403.878057,432.180896 406.396013,432.180896 C408.44395,432.180896 410.080597,432.021503 411.306002,431.702711 C412.531407,431.38392 413.530181,430.897351 414.302354,430.242991 C415.074527,429.58863 415.695614,428.758107 416.165632,427.751398 C416.63565,426.744689 417.122448,425.536657 417.626039,424.127264 L420.496494,424.529946 L419.086446,434.949332 L389.827948,434.949332 Z M401.057974,394.983185 C401.99801,394.580501 402.904461,394.102321 403.777352,393.548631 C404.650243,392.994942 405.506336,392.449649 406.345654,391.912738 C407.184973,391.375826 407.999099,390.922814 408.788059,390.553687 C409.577018,390.184561 410.374359,390 411.180105,390 C412.120141,390 412.783193,390.226506 413.16928,390.679525 C413.555366,391.132544 413.748407,391.661059 413.748407,392.265084 C413.748407,393.036894 413.337147,393.632521 412.514615,394.051983 C411.692082,394.471446 410.684915,394.815399 409.493083,395.083855 C408.301251,395.352311 407.017112,395.595595 405.64063,395.813715 C404.264148,396.031836 403.021975,396.325455 401.914074,396.694581 L401.057974,394.983185 Z M484.855119,425.033298 C484.385101,426.644032 483.722049,428.103738 482.865944,429.41246 C482.009839,430.721182 480.994279,431.845323 479.819233,432.784918 C478.644187,433.724513 477.343263,434.445977 475.916421,434.949332 C474.48958,435.452686 472.95365,435.70436 471.308586,435.70436 C468.253466,435.70436 465.668404,435.276515 463.553321,434.420812 C461.438238,433.565109 459.717661,432.382244 458.391538,430.872181 C457.065414,429.362117 456.108606,427.583625 455.521083,425.53665 C454.93356,423.489675 454.639803,421.25817 454.639803,418.842068 C454.639803,416.258182 454.908381,413.875673 455.445544,411.69447 C455.982708,409.513267 456.847193,407.634106 458.039026,406.056928 C459.230858,404.479751 460.758395,403.246551 462.621682,402.357291 C464.484969,401.468031 466.742702,401.023408 469.394949,401.023408 C470.167122,401.023408 470.989642,401.073743 471.862533,401.174414 C472.735424,401.275085 473.599909,401.434478 474.456014,401.652598 C475.312119,401.870719 476.117853,402.155949 476.87324,402.508297 C477.628626,402.860645 478.274892,403.28849 478.812056,403.791844 C479.651374,402.483123 480.843189,401.610654 482.387535,401.174414 C483.596154,404.060313 484.200454,408.053532 484.200454,413.154191 L480.675334,413.154191 C479.836015,409.73138 478.686166,407.281759 477.225752,405.805252 C475.765337,404.328746 473.809755,403.590503 471.358944,403.590503 C469.646735,403.590503 468.253487,403.968014 467.179159,404.723045 C466.104831,405.478077 465.257132,406.467993 464.636037,407.692822 C464.014941,408.917651 463.586895,410.327023 463.351886,411.920979 C463.116876,413.514935 462.999374,415.134034 462.999374,416.778325 C462.999374,419.026642 463.133662,421.123921 463.402244,423.070225 C463.670826,425.016529 464.157624,426.71113 464.862651,428.15408 C465.567679,429.597029 466.524488,430.737949 467.733106,431.576873 C468.941725,432.415798 470.486048,432.835253 472.366122,432.835253 C474.816932,432.835253 476.848052,432.164124 478.459544,430.821845 C480.071035,429.479567 481.481069,427.281618 482.689688,424.227935 L484.855119,425.033298 Z M540.09879,434.949332 L540.09879,432.835253 C543.388919,432.835253 545.033959,431.811781 545.033959,429.764806 L545.033959,419.597096 C544.698231,419.429311 544.236613,419.286697 543.64909,419.169247 C543.061567,419.051798 542.364943,418.993074 541.559197,418.993074 L535.516134,418.993074 C534.273943,418.993074 533.182845,419.194413 532.242808,419.597096 L532.242808,429.764806 C532.242808,431.811781 533.753559,432.835253 536.775106,432.835253 L536.775106,434.949332 L518.89771,434.949332 L518.89771,432.835253 C522.288557,432.835253 523.983955,431.811781 523.983955,429.764806 L523.983955,407.768325 C523.983955,405.117324 522.288557,403.791844 518.89771,403.791844 L518.89771,401.577095 L536.775106,401.577095 L536.775106,403.791844 C533.753559,403.791844 532.242808,405.117324 532.242808,407.768325 L532.242808,415.972962 C532.746399,416.140747 533.249983,416.258195 533.753574,416.325308 C534.257165,416.392422 534.844679,416.425979 535.516134,416.425979 L541.559197,416.425979 C543.30498,416.425979 544.463222,416.291753 545.033959,416.023297 L545.033959,407.768325 C545.033959,405.117324 543.388919,403.791844 540.09879,403.791844 L540.09879,401.577095 L557.875468,401.577095 L557.875468,403.791844 C554.820349,403.791844 553.292812,405.117324 553.292812,407.768325 L553.292812,429.764806 C553.292812,431.811781 554.820349,432.835253 557.875468,432.835253 L557.875468,434.949332 L540.09879,434.949332 Z M593.22739,434.949332 L593.22739,432.835253 C596.248936,432.835253 597.759687,431.862116 597.759687,429.915812 L597.759687,407.566984 C597.759687,405.050212 596.131434,403.791844 592.874878,403.791844 L592.874878,401.577095 L621.780864,401.577095 L622.183735,411.442794 L619.111844,411.69447 C618.809689,409.848837 618.37325,408.431077 617.802514,407.441146 C617.231777,406.451216 616.543546,405.729752 615.7378,405.276733 C614.932055,404.823713 614.008818,404.555262 612.968063,404.471369 C611.927308,404.387477 610.769066,404.345531 609.493302,404.345531 C608.385401,404.345531 607.529309,404.504925 606.925,404.823716 C606.32069,405.142507 606.01854,405.603908 606.01854,406.207934 L606.01854,415.066929 C606.01854,415.872296 606.404621,416.274973 607.176794,416.274973 C607.98254,416.274973 608.721129,416.224639 609.392584,416.123968 C610.064039,416.023297 610.659946,415.796791 611.180324,415.444442 C611.700701,415.092094 612.128747,414.56358 612.464474,413.858884 C612.800202,413.154187 613.018421,412.197828 613.11914,410.989777 L616.039954,410.989777 L616.039954,424.37894 L613.11914,424.37894 C613.018421,423.238003 612.85056,422.315201 612.615551,421.610504 C612.380542,420.905808 612.053213,420.368905 611.633553,419.999778 C611.213894,419.630651 610.685131,419.378978 610.047249,419.24475 C609.409367,419.110522 608.637206,419.026631 607.730742,418.993074 C606.589268,419.093745 606.01854,419.546757 606.01854,420.352124 L606.01854,429.764806 C606.01854,431.375541 607.277499,432.180896 609.795455,432.180896 C611.843392,432.180896 613.480039,432.021503 614.705444,431.702711 C615.930849,431.38392 616.929623,430.897351 617.701796,430.242991 C618.473969,429.58863 619.095055,428.758107 619.565074,427.751398 C620.035092,426.744689 620.52189,425.536657 621.025481,424.127264 L623.895936,424.529946 L622.485888,434.949332 L593.22739,434.949332 Z M604.457416,394.983185 C605.397452,394.580501 606.303903,394.102321 607.176794,393.548631 C608.049685,392.994942 608.905777,392.449649 609.745096,391.912738 C610.584415,391.375826 611.398541,390.922814 612.187501,390.553687 C612.97646,390.184561 613.773801,390 614.579547,390 C615.519583,390 616.182635,390.226506 616.568722,390.679525 C616.954808,391.132544 617.147848,391.661059 617.147848,392.265084 C617.147848,393.036894 616.736589,393.632521 615.914056,394.051983 C615.091524,394.471446 614.084357,394.815399 612.892525,395.083855 C611.700692,395.352311 610.416554,395.595595 609.040072,395.813715 C607.66359,396.031836 606.421417,396.325455 605.313516,396.694581 L604.457416,394.983185 Z" id="MONT-PÉCHÉ" fill="#0E84CE"></path>
                            <ellipse id="Oval-3" fill="#0E84CE" cx="285.07769" cy="419.511682" rx="6.29485759" ry="6.29189973"></ellipse>
                            <text id="MON-PETIT-PLAISIR-SA" font-family="AvenirNext-Bold, Avenir Next" font-size="28" font-weight="bold" letter-spacing="11.6999998" fill="#CEC09D">
                                <tspan x="0" y="512">MON PETIT PLAISIR SACR</tspan>
                                <tspan x="607.259996" y="512">É</tspan>
                            </text>
                        </g>
                    </g>
                </g>
            </g>
        </g>
    </g>
</svg>